# xmcd CD database file
#
# Track frame offsets:
#	150
#	17147
#	36168
#	55124
#	75092
#	90611
#	107593
#	126180
#	147894
#	168505
#	184723
#	207096
#	230352
#	254651
#	269760
#	286435
#	314203
#
# Disc length: 4560 seconds
#
# Revision: 0
# Processed by: cddbd v1.5.2PL0 Copyright (c) Steve Scherf et al.
# Submitted via: CDex 1.70beta2
#
DISCID=f311ce11
DTITLE=Anna Maria Jopek - Niebo
DYEAR=2006
DGENRE=Jazz
TTITLE0=Anna Maria Jopek - Ode Mnie
TTITLE1=Anna Maria Jopek - I Nie Zobaczy Nikt
TTITLE2=Anna Maria Jopek - A Gdybysmy Nigdy Sie Nie Spotkali
TTITLE3=Anna Maria Jopek - Piosenka Dla Frania
TTITLE4=Anna Maria Jopek - Ustami
TTITLE5=Anna Maria Jopek - Ja Spytac Chce O To Samo
TTITLE6=Anna Maria Jopek - Niebo
TTITLE7=Anna Maria Jopek - Ucisz Sie
TTITLE8=Anna Maria Jopek - Pytanie O
TTITLE9=Anna Maria Jopek - Z Nadzieja, Ze Nie Ma Nieistnienia
TTITLE10=Anna Maria Jopek - Czule Miejsce
TTITLE11=Anna Maria Jopek - Gdy Mowia Mi
TTITLE12=Anna Maria Jopek - Adagio
TTITLE13=Exsultate,Jubilate K165
TTITLE14=W zimowe dni
TTITLE15=Gdy Mowia Mi (live)
TTITLE16=Ja Spytac Chce O To Samo (live)
EXTD=YEAR: 2006
EXTT0=
EXTT1=
EXTT2=
EXTT3=
EXTT4=
EXTT5=
EXTT6=
EXTT7=
EXTT8=
EXTT9=
EXTT10=
EXTT11=
EXTT12=
EXTT13=
EXTT14=
EXTT15=
EXTT16=
PLAYORDER=
